<svg xmlns="http://www.w3.org/2000/svg" viewBox="0 0 512 512" role="img" aria-label="Chat 42">
  <rect width="512" height="512" rx="96" fill="#020617"/>
  <path fill="#34d399" d="M128 176c0-35 28-64 64-64h128c35 0 64 29 64 64v24c0 18-15 32-32 32h-16v96c0 35-29 64-64 64h-32c-35 0-64-29-64-64V232h-16c-18 0-32-14-32-32v-24zm96 24h64v88c0 18-14 32-32 32h-32c-18 0-32-14-32-32v-88h32z"/>
  <circle cx="208" cy="196" r="16" fill="#020617"/>
  <circle cx="304" cy="196" r="16" fill="#020617"/>
  <path fill="#34d399" d="M240 300c8 8 24 8 32 0"/>
</svg>
